<?xml version="1.0" encoding="UTF-8"?>
<!DOCTYPE svg PUBLIC "-//W3C//DTD SVG 1.0//EN" "http://www.w3.org/TR/2001/REC-SVG-20010904/DTD/svg10.dtd">
<!-- Creator: CorelDRAW -->
<svg xmlns="http://www.w3.org/2000/svg" xml:space="preserve" width="140mm" height="26.5mm" version="1.0" style="shape-rendering:geometricPrecision; text-rendering:geometricPrecision; image-rendering:optimizeQuality; fill-rule:evenodd; clip-rule:evenodd"
viewBox="0 0 140 26.5"
 xmlns:xlink="http://www.w3.org/1999/xlink"
 xmlns:xodm="http://www.corel.com/coreldraw/odm/2003">
 <defs>
  <style type="text/css">
   <![CDATA[
    .fil0 {fill:#16E1FF;fill-rule:nonzero}
   ]]>
  </style>
 </defs>
 <g id="Layer_x0020_1">
  <metadata id="CorelCorpID_0Corel-Layer"/>
  <g id="_105553299918144">
   <polygon class="fil0" points="12.328,0.7288 14.553,0.7288 3.3003,24.347 1.0752,24.3471 "/>
   <polygon class="fil0" points="20.2822,4.7967 18.8854,4.7967 18.8854,0.2927 20.2822,0.2927 "/>
   <path class="fil0" d="M26.9672 10.3447l-1.0831 -1.6369c0.4802,-0.3529 1.1419,-0.7058 1.9848,-1.0538 0.843,-0.3529 1.8575,-0.5293 3.0435,-0.5293 1.4801,0 2.6858,0.3382 3.612,1.0144 0.9262,0.6764 1.387,1.637 1.387,2.877l0 9.1698 -2.2249 0.0001 0 -1.7252c-0.4068,0.6666 -1.0194,1.1665 -1.833,1.4998 -0.8135,0.3332 -1.6124,0.4999 -2.3917,0.4999 -0.7793,0 -1.5046,-0.1617 -2.1809,-0.4851 -0.6764,-0.3235 -1.2204,-0.794 -1.6272,-1.4017 -0.4067,-0.6127 -0.6126,-1.3527 -0.6126,-2.2251 0,-1.2399 0.4411,-2.2348 1.3184,-2.9847 0.8773,-0.7499 2.1074,-1.1273 3.6806,-1.1273 0.8529,0 1.5782,0.0981 2.181,0.2941 0.6028,0.1961 1.088,0.4117 1.4605,0.6518l0 -1.8624c0,-0.8724 -0.2843,-1.4654 -0.8478,-1.7791 -0.5637,-0.3136 -1.2449,-0.4704 -2.0437,-0.4704 -0.9656,0 -1.7693,0.1568 -2.4163,0.4704 -0.6372,0.3136 -1.1076,0.5831 -1.4066,0.8037zm0.3332 5.8911c0,0.7401 0.2548,1.3086 0.7646,1.7105 0.5097,0.397 1.1714,0.5979 1.9849,0.5979 1.0194,0 1.8819,-0.3039 2.5828,-0.9165 0.7058,-0.6127 1.0538,-1.4262 1.0538,-2.4457l0 -0.4704c-0.5195,-0.2598 -1.0488,-0.446 -1.583,-0.5539 -0.5391,-0.1127 -1.1027,-0.1666 -1.6957,-0.1666 -1.0733,0 -1.8624,0.201 -2.3622,0.5979 -0.4952,0.3921 -0.7452,0.941 -0.7452,1.6468z"/>
   <path class="fil0" d="M52.4523 7.6736l-3.1317 0c1.9898,1.6664 2.9847,3.6269 2.9847,5.8862 0,1.9801 -0.642,3.6317 -1.9211,4.9599 -1.2791,1.3233 -2.9014,1.9898 -4.8618,1.9898 -2.0093,0 -3.661,-0.6763 -4.9647,-2.0339 -1.2644,-1.3281 -1.9016,-2.9651 -1.9016,-4.9108 0,-2.2594 0.9949,-4.2247 2.9847,-5.8862l-3.1318 -0.0001 0 -1.9016 6.0086 0.0001 0 1.7889c-2.225,1.0684 -3.3376,2.9994 -3.3376,5.793 0,1.4654 0.343,2.6613 1.0292,3.5827 0.7793,1.0389 1.8771,1.5585 3.2984,1.5585 1.431,0 2.5288,-0.5341 3.2983,-1.6026 0.6714,-0.941 1.0047,-2.1516 1.0047,-3.6366 0,-2.7593 -1.1175,-4.656 -3.3523,-5.6999l0 -1.7889 5.999 -0.0001 0 1.9016 -0.005 0z"/>
   <polygon class="fil0" points="53.5159,7.3991 55.5988,7.3991 55.5988,2.9539 57.8238,2.9539 57.8238,7.3991 59.9067,7.3991 59.9067,9.4821 57.8238,9.4821 57.8238,20.1811 55.5988,20.1811 55.5988,9.4821 53.5159,9.4821 "/>
   <path class="fil0" d="M64.2098 26.2927l-2.225 0 0 -18.8936 2.225 0 0 2.1957c0.4607,-0.794 1.0684,-1.4066 1.8182,-1.8329 0.7498,-0.4265 1.5978,-0.6372 2.5437,-0.6372 1.1664,0 2.225,0.2695 3.1807,0.8038 0.9557,0.5391 1.7154,1.3036 2.2937,2.2937 0.5734,0.9899 0.8625,2.181 0.8625,3.568 0,1.3723 -0.2891,2.5583 -0.8625,3.5581 -0.5734,0.9998 -1.338,1.7693 -2.2937,2.3084 -0.9557,0.5392 -2.0143,0.8038 -3.1807,0.8038 -0.9459,0 -1.7938,-0.2156 -2.5437,-0.6372 -0.7498,-0.4264 -1.3576,-1.0389 -1.8182,-1.8329l0 8.3023zm8.4493 -12.5025c0,-0.9803 -0.2009,-1.8135 -0.5979,-2.4996 -0.3969,-0.6861 -0.9262,-1.2057 -1.5829,-1.5536 -0.6568,-0.3529 -1.387,-0.5293 -2.181,-0.5293 -0.6469,0 -1.2889,0.1764 -1.9163,0.5293 -0.6322,0.3529 -1.1468,0.8724 -1.5536,1.5536 -0.4067,0.6861 -0.6127,1.5193 -0.6127,2.4996 0,0.9802 0.2059,1.8134 0.6127,2.4995 0.4068,0.6861 0.9263,1.2057 1.5536,1.5536 0.6274,0.3529 1.2694,0.5293 1.9163,0.5293 0.794,0 1.5242,-0.1764 2.181,-0.5293 0.6567,-0.3529 1.186,-0.8724 1.5829,-1.5536 0.397,-0.6861 0.5979,-1.5194 0.5979,-2.4995z"/>
   <path class="fil0" d="M90.3174 12.8541c0,2.225 -0.5587,4.0286 -1.6712,5.4108 -1.2057,1.4947 -2.8916,2.2398 -5.0627,2.2398 -2.1172,0 -3.7639,-0.7351 -4.9402,-2.2104 -1.0782,-1.3576 -1.6125,-3.1219 -1.6125,-5.2932 0,-0.1421 0.0049,-0.3627 0.0147,-0.6518l10.743 0c-0.0833,-1.4115 -0.4656,-2.5486 -1.1517,-3.4209 -0.7793,-0.9851 -1.8427,-1.4801 -3.2003,-1.4801 -1.8281,0 -3.0926,0.9851 -3.7983,2.9553l-2.524 -0.3137c0.843,-3.1024 2.9504,-4.656 6.3369,-4.656 2.2153,0 3.9307,0.6861 5.1412,2.0634 1.1468,1.3232 1.7251,3.1071 1.7251,5.3568zm-2.6612 1.5046l-8.0475 0c0.1079,1.2105 0.4166,2.1221 0.9214,2.725 0.7793,0.941 1.7839,1.4115 3.0239,1.4115 1.1861,0 2.1516,-0.397 2.9014,-1.1959 0.7205,-0.7548 1.1175,-1.735 1.2008,-2.9406z"/>
   <path class="fil0" d="M106.2015 7.6736l-3.1317 0c1.9898,1.6664 2.9847,3.6269 2.9847,5.8862 0,1.9801 -0.642,3.6317 -1.9211,4.9599 -1.2792,1.3233 -2.9014,1.9898 -4.8618,1.9898 -2.0094,0 -3.661,-0.6763 -4.9647,-2.0339 -1.2645,-1.3281 -1.9016,-2.9651 -1.9016,-4.9108 0,-2.2594 0.9949,-4.2247 2.9847,-5.8862l-3.1318 -0.0001 0 -1.9016 6.0086 0.0001 0 1.7889c-2.225,1.0684 -3.3376,2.9994 -3.3376,5.793 0,1.4654 0.343,2.6613 1.0292,3.5827 0.7793,1.0389 1.8771,1.5585 3.2983,1.5585 1.4311,0 2.5289,-0.5341 3.2984,-1.6026 0.6714,-0.941 1.0047,-2.1516 1.0047,-3.6366 0,-2.7593 -1.1175,-4.656 -3.3523,-5.6999l0 -1.7889 5.999 -0.0001 0 1.9016 -0.005 0z"/>
   <path class="fil0" d="M109.7351 16.2652c0.3872,0.593 0.8675,1.1027 1.431,1.5291 0.5637,0.4264 1.2449,0.6372 2.0437,0.6372 0.6274,0 1.1272,-0.1421 1.4851,-0.4313 0.3627,-0.2892 0.544,-0.6812 0.544,-1.1812 0,-0.446 -0.1421,-0.8185 -0.4313,-1.1272 -0.2892,-0.3039 -0.6519,-0.5637 -1.0978,-0.7793 -0.446,-0.2108 -0.9165,-0.4117 -1.4164,-0.5979 -0.5538,-0.2205 -1.1174,-0.4851 -1.681,-0.794 -0.5636,-0.3038 -1.039,-0.7057 -1.4163,-1.1958 -0.3823,-0.4902 -0.5686,-1.1077 -0.5686,-1.8477 0,-0.7596 0.201,-1.387 0.5979,-1.8918 0.397,-0.4999 0.9165,-0.8724 1.5536,-1.1125 0.6372,-0.2402 1.3037,-0.3627 1.9849,-0.3627 1.0194,0 1.9457,0.2401 2.7788,0.7204 0.8332,0.4803 1.4459,1.0733 1.833,1.7791l-1.7791 1.137c-0.3529,-0.4803 -0.794,-0.8773 -1.3184,-1.1958 -0.5293,-0.3137 -1.1272,-0.4705 -1.7937,-0.4705 -0.4657,0 -0.8626,0.1029 -1.1959,0.3038 -0.3332,0.2059 -0.4999,0.5195 -0.4999,0.9459 0,0.5195 0.2744,0.9411 0.8184,1.2645 0.544,0.3235 1.1616,0.6274 1.8477,0.9017 0.74,0.299 1.4163,0.6176 2.029,0.9606 0.6126,0.3431 1.0978,0.7548 1.4605,1.2351 0.3627,0.4803 0.544,1.1027 0.544,1.8624 0,1.1126 -0.4019,2.0389 -1.2106,2.7789 -0.8037,0.7401 -1.8672,1.1125 -3.1807,1.1125 -0.8528,0 -1.6222,-0.1519 -2.3083,-0.4607 -0.6861,-0.3039 -1.2645,-0.7009 -1.735,-1.1812 -0.4705,-0.4803 -0.8283,-0.9704 -1.0685,-1.4704l1.7499 -1.0682z"/>
   <polygon class="fil0" points="118.4589,7.3991 120.5418,7.3991 120.5418,2.9539 122.7668,2.9539 122.7668,7.3991 124.8498,7.3991 124.8498,9.4821 122.7668,9.4821 122.7668,20.1811 120.5418,20.1811 120.5418,9.4821 118.4589,9.4821 "/>
   <polygon class="fil0" points="136.6612,0.7288 138.8862,0.7288 127.6335,24.347 125.4085,24.3471 "/>
  </g>
 </g>
</svg>
